<?xml version="1.0" encoding="utf-8"?>
<!-- Generator: Adobe Illustrator 27.0.0, SVG Export Plug-In . SVG Version: 6.00 Build 0)  -->
<svg version="1.1" id="Layer_1" xmlns="http://www.w3.org/2000/svg" xmlns:xlink="http://www.w3.org/1999/xlink" x="0px" y="0px"
	 viewBox="0 0 841.9 595.3" style="enable-background:new 0 0 841.9 595.3;" xml:space="preserve">
<style type="text/css">
	.st0{fill:#00A0D0;}
	.st1{fill:#77E445;}
</style>
<g>
	<path class="st0" d="M430.5,364.5v38.9c46.8-0.4,84.7-38.4,84.7-85.3h-38.9C476.3,343.4,455.9,364.1,430.5,364.5z"/>
	<path class="st1" d="M305.2,318.3h39.3c0-47.1,38.2-85.4,85.4-85.4v-39.3C361,193.6,305.2,249.4,305.2,318.3z"/>
	<path class="st1" d="M429.8,293.9v-22.3c-25.4,0-46.1,20.4-46.4,45.8h22.3C406.1,304.3,416.7,293.9,429.8,293.9z"/>
	<path class="st0" d="M430.3,342.2c13.3,0,24.2-10.8,24.2-24.2h-24.2V342.2z"/>
</g>
<g>
	<path class="st1" d="M457.6,221.6h22.1v6.3h-15.4v9.5H478v6.3h-13.7v9.9h15.9v6.3h-22.6V221.6z"/>
	<path class="st1" d="M518,256.1c-2.4,2.6-7.3,4.3-12.2,4.3c-11.7,0-19.7-7.8-19.7-19.7c0-11,6.9-19.7,19.5-19.7
		c5,0,9.1,1.6,11.6,3.9l-3,5c-2.3-1.5-4.8-2.6-8.6-2.6c-7.1,0-12.4,5.1-12.4,13.4c0,8,5.4,13.4,13.2,13.4c3.2,0,6.4-1,9.1-3.1
		L518,256.1z"/>
	<path class="st1" d="M540.1,221c11.3,0,19.9,7.8,19.9,19.7c0,11.5-8.6,19.7-19.9,19.7c-11.3,0-19.9-7.8-19.9-19.7
		C520.3,229.6,528.4,221,540.1,221z M540.1,254.1c8,0,12.8-5.9,12.8-13.4c0-7.9-5.6-13.4-12.8-13.4c-7.3,0-12.8,5.5-12.8,13.4
		C527.3,248.3,533,254.1,540.1,254.1z"/>
</g>
<g>
	<path class="st0" d="M457.5,272.5h2.6l5,6.9l4.8-6.9h2.4v14.7h-2.6v-10.6l-4.6,6.5h-0.4l-4.7-6.5v10.6h-2.6V272.5z"/>
	<path class="st0" d="M482.9,272.2c4.4,0,7.7,3,7.7,7.6c0,4.4-3.3,7.6-7.7,7.6s-7.6-3-7.6-7.6C475.3,275.6,478.4,272.2,482.9,272.2z
		 M482.9,285c3.1,0,4.9-2.3,4.9-5.2c0-3-2.2-5.2-4.9-5.2c-2.8,0-4.9,2.1-4.9,5.2C478,282.7,480.2,285,482.9,285z"/>
	<path class="st0" d="M504,287.2L496,277v10.2h-2.4v-14.7h2.1l8.1,10.2v-10.2h2.4v14.7H504z"/>
	<path class="st0" d="M510.5,272.5h2.6v14.7h-2.6V272.5z"/>
	<path class="st0" d="M515.6,272.5h12.1v2.4H523v12.3h-2.6v-12.3h-4.8V272.5z"/>
	<path class="st0" d="M535.8,272.2c4.4,0,7.7,3,7.7,7.6c0,4.4-3.3,7.6-7.7,7.6s-7.6-3-7.6-7.6C528.2,275.6,531.3,272.2,535.8,272.2z
		 M535.8,285c3.1,0,4.9-2.3,4.9-5.2c0-3-2.2-5.2-4.9-5.2c-2.8,0-4.9,2.1-4.9,5.2C530.9,282.7,533.1,285,535.8,285z"/>
	<path class="st0" d="M546.5,287.2v-14.7c0.8,0,4,0,4.5,0c4,0,5.3,2,5.3,4.5c0,2.5-1.6,3.8-2.8,4.2l4.6,6h-3.1l-4-5.5h-1.8v5.5
		H546.5z M549.1,274.9v4.4h1.7c1.5,0,2.8-0.8,2.8-2.3c0-1.2-0.6-2.1-2.7-2.1C550.3,274.8,549.8,274.9,549.1,274.9z"/>
</g>
</svg>
