<svg width="74" height="74" viewBox="0 0 74 74" fill="none" xmlns="http://www.w3.org/2000/svg">
<path d="M18.3749 21.6938C18.3757 19.1811 18.8919 16.6953 19.8915 14.39C20.8911 12.0847 22.3529 10.0089 24.1865 8.2909C26.0201 6.57292 28.1866 5.24927 30.5521 4.40175C32.9175 3.55423 35.4316 3.20086 37.939 3.36347C40.4465 3.52609 42.8939 4.20124 45.1301 5.34719C47.3662 6.49313 49.3436 8.08553 50.9399 10.026C52.5363 11.9664 53.7177 14.2136 54.4112 16.6287C55.1047 19.0438 55.2954 21.5754 54.9717 24.0672C58.5076 26.0632 61.2828 29.1741 62.8638 32.914C64.4448 36.654 64.7426 40.8122 63.7105 44.7392C62.6785 48.6662 60.3748 52.1408 57.1593 54.6202C53.9439 57.0996 49.9977 58.4441 45.9374 58.4438H39.8124V67.6313H33.6874V58.4438H26.0311C22.1914 58.4455 18.4664 57.1353 15.4733 54.7303C12.4801 52.3253 10.3985 48.9698 9.57328 45.2199C8.7481 41.4699 9.22889 37.5506 10.936 34.1113C12.6431 30.672 15.4741 27.9192 18.9598 26.3089C18.5703 24.8015 18.3738 23.2507 18.3749 21.6938ZM21.468 31.898C19.2671 32.9385 17.4857 34.6969 16.4166 36.884C15.3475 39.0711 15.0543 41.5569 15.5852 43.9328C16.1161 46.3086 17.4395 48.4332 19.3379 49.9572C21.2363 51.4812 23.5967 52.314 26.0311 52.3188H45.9374C48.7955 52.3217 51.5647 51.3252 53.7656 49.5018C55.9664 47.6783 57.4604 45.1427 57.9889 42.3338C58.5174 39.525 58.0471 36.6198 56.6594 34.1211C55.2717 31.6225 53.054 29.6877 50.3902 28.6518L47.8147 27.6473C48.3567 25.6873 48.9999 23.7518 48.9999 21.6938C48.9999 19.6057 48.4661 17.5522 47.4493 15.7284C46.4324 13.9047 44.9663 12.3711 43.1901 11.2733C41.4138 10.1755 39.3865 9.55 37.3005 9.45614C35.2145 9.36229 33.1391 9.80321 31.2715 10.737C29.4038 11.6709 27.8059 13.0666 26.6294 14.7917C25.4529 16.5168 24.7369 18.514 24.5494 20.5936C24.3618 22.6733 24.709 24.7664 25.558 26.6741C26.4069 28.5818 27.7294 30.2409 29.3999 31.4938L25.7249 36.3938C24.063 35.1454 22.6238 33.6255 21.468 31.898Z" fill="white"/>
</svg>
