<svg width="65" height="43" viewBox="0 0 65 43" fill="none" xmlns="http://www.w3.org/2000/svg">
<path d="M16.6875 42.8503C12.2926 42.8503 8.53812 41.4527 5.42403 38.6575C2.30994 35.8623 0.751932 32.4459 0.75 28.4083C0.75 24.9476 1.88494 21.8639 4.15483 19.1574C6.42472 16.4509 9.39489 14.7206 13.0653 13.9663C14.2727 9.88437 16.6875 6.5789 20.3097 4.04988C23.9318 1.52086 28.0369 0.256348 32.625 0.256348C38.2756 0.256348 43.0694 2.06482 47.0064 5.68176C50.9435 9.2987 52.911 13.7019 52.9091 18.8912C56.2415 19.2462 59.0069 20.5666 61.2053 22.8525C63.4037 25.1383 64.5019 27.8111 64.5 30.8708C64.5 34.1984 63.2327 37.0274 60.6982 39.3576C58.1636 41.6879 55.0843 42.8521 51.4602 42.8503H16.6875ZM16.6875 37.5261H51.4602C53.4886 37.5261 55.2031 36.8828 56.6037 35.5961C58.0043 34.3094 58.7045 32.7343 58.7045 30.8708C58.7045 29.0073 58.0043 27.4322 56.6037 26.1455C55.2031 24.8588 53.4886 24.2155 51.4602 24.2155H47.1136V18.8912C47.1136 15.2086 45.7005 12.0691 42.8743 9.47262C40.048 6.87616 36.6316 5.57882 32.625 5.5806C28.6165 5.5806 25.2001 6.87883 22.3757 9.47529C19.5514 12.0717 18.1383 15.2104 18.1364 18.8912H16.6875C13.8864 18.8912 11.4957 19.8008 9.51562 21.6199C7.53551 23.439 6.54545 25.6353 6.54545 28.2087C6.54545 30.782 7.53551 32.9783 9.51562 34.7974C11.4957 36.6165 13.8864 37.5261 16.6875 37.5261Z" fill="white"/>
</svg>
