<svg width="49" height="61" viewBox="0 0 49 61" fill="none" xmlns="http://www.w3.org/2000/svg">
<path fill-rule="evenodd" clip-rule="evenodd" d="M24.5972 4.66607C27.0647 7.34324 31.6655 12.5947 35.7437 18.6803C40.1496 25.2549 43.6737 32.4127 43.6737 38.2362C43.6737 43.8038 41.7708 48.1228 38.5803 51.0454C35.3897 53.9679 30.6746 55.711 24.5965 55.711C18.5184 55.711 13.8033 53.9679 10.6128 51.0454C7.42221 48.1228 5.51931 43.8038 5.51931 38.2362C5.51931 32.4127 9.04346 25.2549 13.4495 18.6803C17.5279 12.5946 22.1293 7.34302 24.5972 4.66607ZM22.8525 0.35012C23.3997 0.119442 23.9949 0 24.5973 0C25.1996 0 25.7948 0.119442 26.342 0.35012C26.8892 0.580801 27.3754 0.91725 27.7671 1.33634L27.7685 1.33784C30.1655 3.90668 35.28 9.63754 39.8083 16.3948C44.2745 23.0594 48.4431 31.1135 48.4431 38.2362C48.4431 44.7331 46.2004 50.2436 41.9527 54.1345C37.705 58.0254 31.6892 60.0797 24.5965 60.0797C17.5039 60.0797 11.4881 58.0254 7.24036 54.1345C2.99266 50.2436 0.75 44.7331 0.75 38.2362C0.75 31.1135 4.91859 23.0594 9.38494 16.3948C13.9134 9.63749 19.0284 3.9066 21.4263 1.33758L21.4274 1.33634C21.8192 0.917244 22.3054 0.580798 22.8525 0.35012Z" fill="white"/>
<path fill-rule="evenodd" clip-rule="evenodd" d="M37.7118 37.144C39.0288 37.144 40.0964 38.122 40.0964 39.3284C40.0964 42.5147 38.7146 45.5704 36.255 47.8235C33.7953 50.0765 30.4593 51.3423 26.9808 51.3423C25.6638 51.3423 24.5962 50.3643 24.5962 49.1579C24.5962 47.9515 25.6638 46.9736 26.9808 46.9736C29.1944 46.9736 31.3173 46.1681 32.8826 44.7344C34.4478 43.3006 35.3271 41.356 35.3271 39.3284C35.3271 38.122 36.3948 37.144 37.7118 37.144Z" fill="white"/>
</svg>
