<svg xmlns="http://www.w3.org/2000/svg" width="45" height="56" viewBox="0 0 45 56" fill="none"><mask id="path-1-inside-1_35_309" fill="white"><path d="M44.25 3.29521H33.375L30.2679 0.25H14.7321L11.625 3.29521H0.75V9.38564H44.25M3.85714 48.9734C3.85714 50.5887 4.51186 52.1378 5.67726 53.28C6.84267 54.4222 8.4233 55.0638 10.0714 55.0638H34.9286C36.5767 55.0638 38.1573 54.4222 39.3227 53.28C40.4881 52.1378 41.1429 50.5887 41.1429 48.9734V12.4309H3.85714V48.9734Z"></path></mask><path d="M33.375 3.29521L30.2252 6.50906L31.5375 7.79521H33.375V3.29521ZM30.2679 0.25L33.4176 -2.96385L32.1053 -4.25H30.2679V0.25ZM14.7321 0.25V-4.25H12.8947L11.5824 -2.96385L14.7321 0.25ZM11.625 3.29521V7.79521H13.4625L14.7748 6.50906L11.625 3.29521ZM0.75 3.29521V-1.20479H-3.75V3.29521H0.75ZM0.75 9.38564H-3.75V13.8856H0.75V9.38564ZM3.85714 48.9734H-0.642857H3.85714ZM41.1429 12.4309H45.6429V7.93085H41.1429V12.4309ZM3.85714 12.4309V7.93085H-0.642857V12.4309H3.85714ZM44.25 -1.20479H33.375V7.79521H44.25V-1.20479ZM36.5248 0.0813649L33.4176 -2.96385L27.1181 3.46385L30.2252 6.50906L36.5248 0.0813649ZM30.2679 -4.25H14.7321V4.75H30.2679V-4.25ZM11.5824 -2.96385L8.47521 0.0813649L14.7748 6.50906L17.8819 3.46385L11.5824 -2.96385ZM11.625 -1.20479H0.75V7.79521H11.625V-1.20479ZM-3.75 3.29521V9.38564H5.25V3.29521H-3.75ZM0.75 13.8856H44.25V4.88564H0.75V13.8856ZM-0.642857 48.9734C-0.642857 51.8117 0.508441 54.515 2.52747 56.4938L8.82706 50.0661C8.51528 49.7606 8.35714 49.3656 8.35714 48.9734H-0.642857ZM2.52747 56.4938C4.54343 58.4696 7.25873 59.5638 10.0714 59.5638V50.5638C9.58787 50.5638 9.14191 50.3747 8.82706 50.0661L2.52747 56.4938ZM10.0714 59.5638H34.9286V50.5638H10.0714V59.5638ZM34.9286 59.5638C37.7413 59.5638 40.4566 58.4696 42.4725 56.4938L36.1729 50.0661C35.8581 50.3747 35.4121 50.5638 34.9286 50.5638V59.5638ZM42.4725 56.4938C44.4916 54.515 45.6429 51.8117 45.6429 48.9734H36.6429C36.6429 49.3656 36.4847 49.7606 36.1729 50.0661L42.4725 56.4938ZM45.6429 48.9734V12.4309H36.6429V48.9734H45.6429ZM41.1429 7.93085H3.85714V16.9309H41.1429V7.93085ZM-0.642857 12.4309V48.9734H8.35714V12.4309H-0.642857Z" fill="white" mask="url(#path-1-inside-1_35_309)"></path><path d="M33.375 3.29521L30.2252 6.50906L31.5375 7.79521H33.375V3.29521ZM30.2679 0.25L33.4176 -2.96385L32.1053 -4.25H30.2679V0.25ZM14.7321 0.25V-4.25H12.8947L11.5824 -2.96385L14.7321 0.25ZM11.625 3.29521V7.79521H13.4625L14.7748 6.50906L11.625 3.29521ZM0.75 3.29521V-1.20479H-3.75V3.29521H0.75ZM0.75 9.38564H-3.75V13.8856H0.75V9.38564ZM3.85714 48.9734H-0.642857H3.85714ZM41.1429 12.4309H45.6429V7.93085H41.1429V12.4309ZM3.85714 12.4309V7.93085H-0.642857V12.4309H3.85714ZM44.25 -1.20479H33.375V7.79521H44.25V-1.20479ZM36.5248 0.0813649L33.4176 -2.96385L27.1181 3.46385L30.2252 6.50906L36.5248 0.0813649ZM30.2679 -4.25H14.7321V4.75H30.2679V-4.25ZM11.5824 -2.96385L8.47521 0.0813649L14.7748 6.50906L17.8819 3.46385L11.5824 -2.96385ZM11.625 -1.20479H0.75V7.79521H11.625V-1.20479ZM-3.75 3.29521V9.38564H5.25V3.29521H-3.75ZM0.75 13.8856H44.25V4.88564H0.75V13.8856ZM-0.642857 48.9734C-0.642857 51.8117 0.508441 54.515 2.52747 56.4938L8.82706 50.0661C8.51528 49.7606 8.35714 49.3656 8.35714 48.9734H-0.642857ZM2.52747 56.4938C4.54343 58.4696 7.25873 59.5638 10.0714 59.5638V50.5638C9.58787 50.5638 9.14191 50.3747 8.82706 50.0661L2.52747 56.4938ZM10.0714 59.5638H34.9286V50.5638H10.0714V59.5638ZM34.9286 59.5638C37.7413 59.5638 40.4566 58.4696 42.4725 56.4938L36.1729 50.0661C35.8581 50.3747 35.4121 50.5638 34.9286 50.5638V59.5638ZM42.4725 56.4938C44.4916 54.515 45.6429 51.8117 45.6429 48.9734H36.6429C36.6429 49.3656 36.4847 49.7606 36.1729 50.0661L42.4725 56.4938ZM45.6429 48.9734V12.4309H36.6429V48.9734H45.6429ZM41.1429 7.93085H3.85714V16.9309H41.1429V7.93085ZM-0.642857 12.4309V48.9734H8.35714V12.4309H-0.642857Z" fill="white" mask="url(#path-1-inside-1_35_309)"></path></svg>